<?xml version="1.0" encoding="UTF-8" standalone="no"?>
<!DOCTYPE svg PUBLIC "-//W3C//DTD SVG 1.1//EN"
 "http://www.w3.org/Graphics/SVG/1.1/DTD/svg11.dtd">
<!-- Generated by graphviz version 2.50.0 (20211204.2007)
 -->
<!-- Title: G Pages: 1 -->
<svg width="3195pt" height="124pt"
 viewBox="0.00 0.00 3194.67 124.05" xmlns="http://www.w3.org/2000/svg" xmlns:xlink="http://www.w3.org/1999/xlink">
<g id="graph0" class="graph" transform="scale(1 1) rotate(0) translate(4 120.05)">
<title>G</title>
<polygon fill="white" stroke="transparent" points="-4,4 -4,-120.05 3190.67,-120.05 3190.67,4 -4,4"/>
<!-- http://data.linkedmdb.org/resource/performance/3701 -->
<g id="node1" class="node">
<title>http://data.linkedmdb.org/resource/performance/3701</title>
<ellipse fill="#e377c2" stroke="#e377c2" cx="46.67" cy="-99.79" rx="46.84" ry="16.03"/>
<text text-anchor="middle" x="46.67" y="-96.09" font-family="Times New Roman,serif" font-size="14.00">ns1:3701</text>
</g>
<!-- http://data.linkedmdb.org/resource/performance/75368 -->
<g id="node2" class="node">
<title>http://data.linkedmdb.org/resource/performance/75368</title>
<ellipse fill="#e377c2" stroke="#e377c2" cx="191.67" cy="-99.79" rx="51.74" ry="16.03"/>
<text text-anchor="middle" x="191.67" y="-96.09" font-family="Times New Roman,serif" font-size="14.00">ns1:75368</text>
</g>
<!-- http://data.linkedmdb.org/resource/performance/3695 -->
<g id="node3" class="node">
<title>http://data.linkedmdb.org/resource/performance/3695</title>
<ellipse fill="#e377c2" stroke="#e377c2" cx="336.67" cy="-99.79" rx="46.84" ry="16.03"/>
<text text-anchor="middle" x="336.67" y="-96.09" font-family="Times New Roman,serif" font-size="14.00">ns1:3695</text>
</g>
<!-- http://data.linkedmdb.org/resource/performance/74894 -->
<g id="node4" class="node">
<title>http://data.linkedmdb.org/resource/performance/74894</title>
<ellipse fill="#e377c2" stroke="#e377c2" cx="481.67" cy="-99.79" rx="51.74" ry="16.03"/>
<text text-anchor="middle" x="481.67" y="-96.09" font-family="Times New Roman,serif" font-size="14.00">ns1:74894</text>
</g>
<!-- http://data.linkedmdb.org/resource/performance/85571 -->
<g id="node5" class="node">
<title>http://data.linkedmdb.org/resource/performance/85571</title>
<ellipse fill="#e377c2" stroke="#e377c2" cx="626.67" cy="-99.79" rx="51.74" ry="16.03"/>
<text text-anchor="middle" x="626.67" y="-96.09" font-family="Times New Roman,serif" font-size="14.00">ns1:85571</text>
</g>
<!-- http://data.linkedmdb.org/resource/performance/77325 -->
<g id="node6" class="node">
<title>http://data.linkedmdb.org/resource/performance/77325</title>
<ellipse fill="#e377c2" stroke="#e377c2" cx="771.67" cy="-99.79" rx="51.74" ry="16.03"/>
<text text-anchor="middle" x="771.67" y="-96.09" font-family="Times New Roman,serif" font-size="14.00">ns1:77325</text>
</g>
<!-- http://data.linkedmdb.org/resource/film/39520 -->
<g id="node7" class="node">
<title>http://data.linkedmdb.org/resource/film/39520</title>
<ellipse fill="#e377c2" stroke="#e377c2" cx="923.67" cy="-99.79" rx="51.74" ry="16.03"/>
<text text-anchor="middle" x="923.67" y="-96.09" font-family="Times New Roman,serif" font-size="14.00">ns2:39520</text>
</g>
<!-- http://data.linkedmdb.org/resource/performance/108256 -->
<g id="node8" class="node">
<title>http://data.linkedmdb.org/resource/performance/108256</title>
<ellipse fill="#e377c2" stroke="#e377c2" cx="1057.67" cy="-99.79" rx="56.64" ry="16.03"/>
<text text-anchor="middle" x="1057.67" y="-96.09" font-family="Times New Roman,serif" font-size="14.00">ns1:108256</text>
</g>
<!-- http://data.linkedmdb.org/resource/performance/3693 -->
<g id="node9" class="node">
<title>http://data.linkedmdb.org/resource/performance/3693</title>
<ellipse fill="#e377c2" stroke="#e377c2" cx="1202.67" cy="-99.79" rx="46.84" ry="16.03"/>
<text text-anchor="middle" x="1202.67" y="-96.09" font-family="Times New Roman,serif" font-size="14.00">ns1:3693</text>
</g>
<!-- http://data.linkedmdb.org/resource/performance/74901 -->
<g id="node10" class="node">
<title>http://data.linkedmdb.org/resource/performance/74901</title>
<ellipse fill="#e377c2" stroke="#e377c2" cx="1347.67" cy="-99.79" rx="51.74" ry="16.03"/>
<text text-anchor="middle" x="1347.67" y="-96.09" font-family="Times New Roman,serif" font-size="14.00">ns1:74901</text>
</g>
<!-- http://data.linkedmdb.org/resource/performance/108257 -->
<g id="node11" class="node">
<title>http://data.linkedmdb.org/resource/performance/108257</title>
<ellipse fill="#e377c2" stroke="#e377c2" cx="1492.67" cy="-99.79" rx="56.64" ry="16.03"/>
<text text-anchor="middle" x="1492.67" y="-96.09" font-family="Times New Roman,serif" font-size="14.00">ns1:108257</text>
</g>
<!-- http://data.linkedmdb.org/resource/performance/3692 -->
<g id="node12" class="node">
<title>http://data.linkedmdb.org/resource/performance/3692</title>
<ellipse fill="#e377c2" stroke="#e377c2" cx="1637.67" cy="-99.79" rx="46.84" ry="16.03"/>
<text text-anchor="middle" x="1637.67" y="-96.09" font-family="Times New Roman,serif" font-size="14.00">ns1:3692</text>
</g>
<!-- http://data.linkedmdb.org/resource/performance/108253 -->
<g id="node13" class="node">
<title>http://data.linkedmdb.org/resource/performance/108253</title>
<ellipse fill="#e377c2" stroke="#e377c2" cx="1782.67" cy="-99.79" rx="56.64" ry="16.03"/>
<text text-anchor="middle" x="1782.67" y="-96.09" font-family="Times New Roman,serif" font-size="14.00">ns1:108253</text>
</g>
<!-- http://data.linkedmdb.org/resource/performance/3694 -->
<g id="node14" class="node">
<title>http://data.linkedmdb.org/resource/performance/3694</title>
<ellipse fill="#e377c2" stroke="#e377c2" cx="1927.67" cy="-99.79" rx="46.84" ry="16.03"/>
<text text-anchor="middle" x="1927.67" y="-96.09" font-family="Times New Roman,serif" font-size="14.00">ns1:3694</text>
</g>
<!-- http://data.linkedmdb.org/resource/performance/152372 -->
<g id="node15" class="node">
<title>http://data.linkedmdb.org/resource/performance/152372</title>
<ellipse fill="#e377c2" stroke="#e377c2" cx="2072.67" cy="-99.79" rx="56.64" ry="16.03"/>
<text text-anchor="middle" x="2072.67" y="-96.09" font-family="Times New Roman,serif" font-size="14.00">ns1:152372</text>
</g>
<!-- http://data.linkedmdb.org/resource/performance/142019 -->
<g id="node16" class="node">
<title>http://data.linkedmdb.org/resource/performance/142019</title>
<ellipse fill="#e377c2" stroke="#e377c2" cx="2217.67" cy="-99.79" rx="56.64" ry="16.03"/>
<text text-anchor="middle" x="2217.67" y="-96.09" font-family="Times New Roman,serif" font-size="14.00">ns1:142019</text>
</g>
<!-- http://data.linkedmdb.org/resource/performance/108258 -->
<g id="node17" class="node">
<title>http://data.linkedmdb.org/resource/performance/108258</title>
<ellipse fill="#e377c2" stroke="#e377c2" cx="2362.67" cy="-99.79" rx="56.64" ry="16.03"/>
<text text-anchor="middle" x="2362.67" y="-96.09" font-family="Times New Roman,serif" font-size="14.00">ns1:108258</text>
</g>
<!-- http://data.linkedmdb.org/resource/performance/3700 -->
<g id="node18" class="node">
<title>http://data.linkedmdb.org/resource/performance/3700</title>
<ellipse fill="#e377c2" stroke="#e377c2" cx="2507.67" cy="-99.79" rx="46.84" ry="16.03"/>
<text text-anchor="middle" x="2507.67" y="-96.09" font-family="Times New Roman,serif" font-size="14.00">ns1:3700</text>
</g>
<!-- http://data.linkedmdb.org/resource/performance/3699 -->
<g id="node19" class="node">
<title>http://data.linkedmdb.org/resource/performance/3699</title>
<ellipse fill="#e377c2" stroke="#e377c2" cx="2652.67" cy="-99.79" rx="46.84" ry="16.03"/>
<text text-anchor="middle" x="2652.67" y="-96.09" font-family="Times New Roman,serif" font-size="14.00">ns1:3699</text>
</g>
<!-- http://data.linkedmdb.org/resource/performance/108561 -->
<g id="node20" class="node">
<title>http://data.linkedmdb.org/resource/performance/108561</title>
<ellipse fill="#e377c2" stroke="#e377c2" cx="2797.67" cy="-99.79" rx="56.64" ry="16.03"/>
<text text-anchor="middle" x="2797.67" y="-96.09" font-family="Times New Roman,serif" font-size="14.00">ns1:108561</text>
</g>
<!-- http://data.linkedmdb.org/resource/performance/108254 -->
<g id="node21" class="node">
<title>http://data.linkedmdb.org/resource/performance/108254</title>
<ellipse fill="#e377c2" stroke="#e377c2" cx="2942.67" cy="-99.79" rx="56.64" ry="16.03"/>
<text text-anchor="middle" x="2942.67" y="-96.09" font-family="Times New Roman,serif" font-size="14.00">ns1:108254</text>
</g>
<!-- http://data.linkedmdb.org/resource/performance/108255 -->
<g id="node22" class="node">
<title>http://data.linkedmdb.org/resource/performance/108255</title>
<ellipse fill="#e377c2" stroke="#e377c2" cx="3087.67" cy="-99.79" rx="56.64" ry="16.03"/>
<text text-anchor="middle" x="3087.67" y="-96.09" font-family="Times New Roman,serif" font-size="14.00">ns1:108255</text>
</g>
<!-- file:///C:/Users/Danylo/Desktop/Universit%C3%A4t/5%20Semester/Praktikum/Python/Batman Begins -->
<g id="node23" class="node">
<title>file:///C:/Users/Danylo/Desktop/Universit%C3%A4t/5%20Semester/Praktikum/Python/Batman Begins</title>
<ellipse fill="lightgrey" stroke="black" cx="1492.67" cy="-16.26" rx="411.57" ry="16.03"/>
<text text-anchor="middle" x="1492.67" y="-12.56" font-family="Times New Roman,serif" font-size="14.00">file:///C:/Users/Danylo/Desktop/Universit%C3%A4t/5%20Semester/Praktikum/Python/Batman Begins</text>
</g>
<!-- file:///C:/Users/Danylo/Desktop/Universit%C3%A4t/5%20Semester/Praktikum/Python/Batman Begins&#45;&gt;http://data.linkedmdb.org/resource/performance/3701 -->
<g id="edge1" class="edge">
<title>file:///C:/Users/Danylo/Desktop/Universit%C3%A4t/5%20Semester/Praktikum/Python/Batman Begins&#45;&gt;http://data.linkedmdb.org/resource/performance/3701</title>
<path fill="none" stroke="black" d="M1084.64,-18.44C684.87,-20.89 129.11,-28.3 84.67,-50.53 74.12,-55.8 65.59,-65.54 59.3,-74.88"/>
<polygon fill="black" stroke="black" points="56.22,-73.22 53.97,-83.57 62.19,-76.88 56.22,-73.22"/>
<text text-anchor="middle" x="145.67" y="-54.33" font-family="Times New Roman,serif" font-size="14.00">ns3:performance_film</text>
</g>
<!-- file:///C:/Users/Danylo/Desktop/Universit%C3%A4t/5%20Semester/Praktikum/Python/Batman Begins&#45;&gt;http://data.linkedmdb.org/resource/performance/75368 -->
<g id="edge2" class="edge">
<title>file:///C:/Users/Danylo/Desktop/Universit%C3%A4t/5%20Semester/Praktikum/Python/Batman Begins&#45;&gt;http://data.linkedmdb.org/resource/performance/75368</title>
<path fill="none" stroke="black" d="M1088.62,-19.44C733.06,-22.67 265.95,-30.69 227.67,-50.53 217.4,-55.85 209.28,-65.58 203.38,-74.93"/>
<polygon fill="black" stroke="black" points="200.34,-73.19 198.39,-83.6 206.41,-76.68 200.34,-73.19"/>
<text text-anchor="middle" x="288.67" y="-54.33" font-family="Times New Roman,serif" font-size="14.00">ns3:performance_film</text>
</g>
<!-- file:///C:/Users/Danylo/Desktop/Universit%C3%A4t/5%20Semester/Praktikum/Python/Batman Begins&#45;&gt;http://data.linkedmdb.org/resource/performance/3695 -->
<g id="edge3" class="edge">
<title>file:///C:/Users/Danylo/Desktop/Universit%C3%A4t/5%20Semester/Praktikum/Python/Batman Begins&#45;&gt;http://data.linkedmdb.org/resource/performance/3695</title>
<path fill="none" stroke="black" d="M1095.64,-20.57C785.6,-24.49 401.92,-32.89 369.67,-50.53 359.92,-55.86 352.47,-65.46 347.14,-74.7"/>
<polygon fill="black" stroke="black" points="344,-73.16 342.51,-83.65 350.21,-76.38 344,-73.16"/>
<text text-anchor="middle" x="430.67" y="-54.33" font-family="Times New Roman,serif" font-size="14.00">ns3:performance_film</text>
</g>
<!-- file:///C:/Users/Danylo/Desktop/Universit%C3%A4t/5%20Semester/Praktikum/Python/Batman Begins&#45;&gt;http://data.linkedmdb.org/resource/performance/74894 -->
<g id="edge4" class="edge">
<title>file:///C:/Users/Danylo/Desktop/Universit%C3%A4t/5%20Semester/Praktikum/Python/Batman Begins&#45;&gt;http://data.linkedmdb.org/resource/performance/74894</title>
<path fill="none" stroke="black" d="M1105.23,-21.77C841.64,-26.25 535.95,-34.79 509.67,-50.53 500.88,-55.79 494.57,-64.94 490.2,-73.87"/>
<polygon fill="black" stroke="black" points="486.89,-72.7 486.19,-83.27 493.33,-75.45 486.89,-72.7"/>
<text text-anchor="middle" x="570.67" y="-54.33" font-family="Times New Roman,serif" font-size="14.00">ns3:performance_film</text>
</g>
<!-- file:///C:/Users/Danylo/Desktop/Universit%C3%A4t/5%20Semester/Praktikum/Python/Batman Begins&#45;&gt;http://data.linkedmdb.org/resource/performance/85571 -->
<g id="edge13" class="edge">
<title>file:///C:/Users/Danylo/Desktop/Universit%C3%A4t/5%20Semester/Praktikum/Python/Batman Begins&#45;&gt;http://data.linkedmdb.org/resource/performance/85571</title>
<path fill="none" stroke="black" d="M1122.24,-23.35C905.56,-28.35 670.39,-36.87 649.67,-50.53 641.56,-55.87 636.24,-64.91 632.78,-73.73"/>
<polygon fill="black" stroke="black" points="629.4,-72.79 629.62,-83.38 636.06,-74.97 629.4,-72.79"/>
<text text-anchor="middle" x="710.67" y="-54.33" font-family="Times New Roman,serif" font-size="14.00">ns3:performance_film</text>
</g>
<!-- file:///C:/Users/Danylo/Desktop/Universit%C3%A4t/5%20Semester/Praktikum/Python/Batman Begins&#45;&gt;http://data.linkedmdb.org/resource/performance/77325 -->
<g id="edge14" class="edge">
<title>file:///C:/Users/Danylo/Desktop/Universit%C3%A4t/5%20Semester/Praktikum/Python/Batman Begins&#45;&gt;http://data.linkedmdb.org/resource/performance/77325</title>
<path fill="none" stroke="black" d="M1144.67,-24.95C973.74,-30.23 800.93,-38.5 785.67,-50.53 778.75,-55.98 775.11,-64.64 773.24,-73.13"/>
<polygon fill="black" stroke="black" points="769.76,-72.76 771.74,-83.17 776.68,-73.8 769.76,-72.76"/>
<text text-anchor="middle" x="846.67" y="-54.33" font-family="Times New Roman,serif" font-size="14.00">ns3:performance_film</text>
</g>
<!-- file:///C:/Users/Danylo/Desktop/Universit%C3%A4t/5%20Semester/Praktikum/Python/Batman Begins&#45;&gt;http://data.linkedmdb.org/resource/film/39520 -->
<g id="edge5" class="edge">
<title>file:///C:/Users/Danylo/Desktop/Universit%C3%A4t/5%20Semester/Praktikum/Python/Batman Begins&#45;&gt;http://data.linkedmdb.org/resource/film/39520</title>
<path fill="none" stroke="black" d="M1175.84,-26.68C1047.9,-32.08 927.67,-39.93 917.67,-50.53 911.9,-56.64 911.52,-65.29 913.22,-73.59"/>
<polygon fill="black" stroke="black" points="909.91,-74.73 916.09,-83.34 916.62,-72.76 909.91,-74.73"/>
<text text-anchor="middle" x="943.67" y="-54.33" font-family="Times New Roman,serif" font-size="14.00">rdfs:label</text>
</g>
<!-- file:///C:/Users/Danylo/Desktop/Universit%C3%A4t/5%20Semester/Praktikum/Python/Batman Begins&#45;&gt;http://data.linkedmdb.org/resource/film/39520 -->
<g id="edge20" class="edge">
<title>file:///C:/Users/Danylo/Desktop/Universit%C3%A4t/5%20Semester/Praktikum/Python/Batman Begins&#45;&gt;http://data.linkedmdb.org/resource/film/39520</title>
<path fill="none" stroke="black" d="M1219.19,-28.45C1139.88,-33.53 1064.49,-40.68 1026.67,-50.53 1001.59,-57.06 975.16,-69.57 955.35,-80.22"/>
<polygon fill="black" stroke="black" points="953.55,-77.22 946.47,-85.11 956.92,-83.36 953.55,-77.22"/>
<text text-anchor="middle" x="1048.17" y="-54.33" font-family="Times New Roman,serif" font-size="14.00">ns4:title</text>
</g>
<!-- file:///C:/Users/Danylo/Desktop/Universit%C3%A4t/5%20Semester/Praktikum/Python/Batman Begins&#45;&gt;http://data.linkedmdb.org/resource/performance/108256 -->
<g id="edge15" class="edge">
<title>file:///C:/Users/Danylo/Desktop/Universit%C3%A4t/5%20Semester/Praktikum/Python/Batman Begins&#45;&gt;http://data.linkedmdb.org/resource/performance/108256</title>
<path fill="none" stroke="black" d="M1244.04,-29.24C1170.23,-34.5 1104.85,-41.55 1089.67,-50.53 1080.42,-55.99 1073.32,-65.31 1068.18,-74.3"/>
<polygon fill="black" stroke="black" points="1064.97,-72.89 1063.53,-83.39 1071.2,-76.08 1064.97,-72.89"/>
<text text-anchor="middle" x="1150.67" y="-54.33" font-family="Times New Roman,serif" font-size="14.00">ns3:performance_film</text>
</g>
<!-- file:///C:/Users/Danylo/Desktop/Universit%C3%A4t/5%20Semester/Praktikum/Python/Batman Begins&#45;&gt;http://data.linkedmdb.org/resource/performance/3693 -->
<g id="edge6" class="edge">
<title>file:///C:/Users/Danylo/Desktop/Universit%C3%A4t/5%20Semester/Praktikum/Python/Batman Begins&#45;&gt;http://data.linkedmdb.org/resource/performance/3693</title>
<path fill="none" stroke="black" d="M1296.47,-30.58C1267.28,-35.33 1242.64,-41.78 1229.67,-50.53 1221.25,-56.2 1215.18,-65.43 1210.95,-74.3"/>
<polygon fill="black" stroke="black" points="1207.69,-73.02 1207.07,-83.6 1214.15,-75.72 1207.69,-73.02"/>
<text text-anchor="middle" x="1290.67" y="-54.33" font-family="Times New Roman,serif" font-size="14.00">ns3:performance_film</text>
</g>
<!-- file:///C:/Users/Danylo/Desktop/Universit%C3%A4t/5%20Semester/Praktikum/Python/Batman Begins&#45;&gt;http://data.linkedmdb.org/resource/performance/74901 -->
<g id="edge7" class="edge">
<title>file:///C:/Users/Danylo/Desktop/Universit%C3%A4t/5%20Semester/Praktikum/Python/Batman Begins&#45;&gt;http://data.linkedmdb.org/resource/performance/74901</title>
<path fill="none" stroke="black" d="M1396.58,-32.21C1385.68,-36.81 1375.38,-42.78 1366.67,-50.53 1359.97,-56.48 1355.61,-65.1 1352.78,-73.42"/>
<polygon fill="black" stroke="black" points="1349.37,-72.63 1350.03,-83.2 1356.11,-74.52 1349.37,-72.63"/>
<text text-anchor="middle" x="1427.67" y="-54.33" font-family="Times New Roman,serif" font-size="14.00">ns3:performance_film</text>
</g>
<!-- file:///C:/Users/Danylo/Desktop/Universit%C3%A4t/5%20Semester/Praktikum/Python/Batman Begins&#45;&gt;http://data.linkedmdb.org/resource/performance/108257 -->
<g id="edge16" class="edge">
<title>file:///C:/Users/Danylo/Desktop/Universit%C3%A4t/5%20Semester/Praktikum/Python/Batman Begins&#45;&gt;http://data.linkedmdb.org/resource/performance/108257</title>
<path fill="none" stroke="black" d="M1492.67,-32.6C1492.67,-44.1 1492.67,-60.1 1492.67,-73.48"/>
<polygon fill="black" stroke="black" points="1489.17,-73.52 1492.67,-83.52 1496.17,-73.52 1489.17,-73.52"/>
<text text-anchor="middle" x="1553.67" y="-54.33" font-family="Times New Roman,serif" font-size="14.00">ns3:performance_film</text>
</g>
<!-- file:///C:/Users/Danylo/Desktop/Universit%C3%A4t/5%20Semester/Praktikum/Python/Batman Begins&#45;&gt;http://data.linkedmdb.org/resource/performance/3692 -->
<g id="edge17" class="edge">
<title>file:///C:/Users/Danylo/Desktop/Universit%C3%A4t/5%20Semester/Praktikum/Python/Batman Begins&#45;&gt;http://data.linkedmdb.org/resource/performance/3692</title>
<path fill="none" stroke="black" d="M1584.23,-32.15C1595.62,-36.74 1606.48,-42.73 1615.67,-50.53 1622.73,-56.52 1627.64,-65.26 1631,-73.66"/>
<polygon fill="black" stroke="black" points="1627.71,-74.86 1634.27,-83.18 1634.33,-72.59 1627.71,-74.86"/>
<text text-anchor="middle" x="1687.67" y="-54.33" font-family="Times New Roman,serif" font-size="14.00">ns3:performance_film</text>
</g>
<!-- file:///C:/Users/Danylo/Desktop/Universit%C3%A4t/5%20Semester/Praktikum/Python/Batman Begins&#45;&gt;http://data.linkedmdb.org/resource/performance/108253 -->
<g id="edge18" class="edge">
<title>file:///C:/Users/Danylo/Desktop/Universit%C3%A4t/5%20Semester/Praktikum/Python/Batman Begins&#45;&gt;http://data.linkedmdb.org/resource/performance/108253</title>
<path fill="none" stroke="black" d="M1683.11,-30.69C1713.39,-35.44 1739.17,-41.86 1752.67,-50.53 1761.54,-56.23 1768.23,-65.58 1773.02,-74.54"/>
<polygon fill="black" stroke="black" points="1769.86,-76.05 1777.33,-83.57 1776.18,-73.04 1769.86,-76.05"/>
<text text-anchor="middle" x="1827.67" y="-54.33" font-family="Times New Roman,serif" font-size="14.00">ns3:performance_film</text>
</g>
<!-- file:///C:/Users/Danylo/Desktop/Universit%C3%A4t/5%20Semester/Praktikum/Python/Batman Begins&#45;&gt;http://data.linkedmdb.org/resource/performance/3694 -->
<g id="edge8" class="edge">
<title>file:///C:/Users/Danylo/Desktop/Universit%C3%A4t/5%20Semester/Praktikum/Python/Batman Begins&#45;&gt;http://data.linkedmdb.org/resource/performance/3694</title>
<path fill="none" stroke="black" d="M1735.69,-29.4C1810.38,-34.73 1877.17,-41.79 1892.67,-50.53 1902.41,-56.01 1910.16,-65.46 1915.87,-74.55"/>
<polygon fill="black" stroke="black" points="1912.9,-76.41 1920.89,-83.36 1918.98,-72.94 1912.9,-76.41"/>
<text text-anchor="middle" x="1969.67" y="-54.33" font-family="Times New Roman,serif" font-size="14.00">ns3:performance_film</text>
</g>
<!-- file:///C:/Users/Danylo/Desktop/Universit%C3%A4t/5%20Semester/Praktikum/Python/Batman Begins&#45;&gt;http://data.linkedmdb.org/resource/performance/152372 -->
<g id="edge19" class="edge">
<title>file:///C:/Users/Danylo/Desktop/Universit%C3%A4t/5%20Semester/Praktikum/Python/Batman Begins&#45;&gt;http://data.linkedmdb.org/resource/performance/152372</title>
<path fill="none" stroke="black" d="M1814.54,-26.42C1918.53,-31.46 2012.85,-39.1 2034.67,-50.53 2044.98,-55.93 2053.4,-65.49 2059.68,-74.69"/>
<polygon fill="black" stroke="black" points="2056.76,-76.63 2065.02,-83.25 2062.69,-72.92 2056.76,-76.63"/>
<text text-anchor="middle" x="2112.67" y="-54.33" font-family="Times New Roman,serif" font-size="14.00">ns3:performance_film</text>
</g>
<!-- file:///C:/Users/Danylo/Desktop/Universit%C3%A4t/5%20Semester/Praktikum/Python/Batman Begins&#45;&gt;http://data.linkedmdb.org/resource/performance/142019 -->
<g id="edge9" class="edge">
<title>file:///C:/Users/Danylo/Desktop/Universit%C3%A4t/5%20Semester/Praktikum/Python/Batman Begins&#45;&gt;http://data.linkedmdb.org/resource/performance/142019</title>
<path fill="none" stroke="black" d="M1869.8,-22.82C2012.41,-27.35 2147.78,-35.58 2177.67,-50.53 2188.55,-55.97 2197.55,-65.86 2204.25,-75.28"/>
<polygon fill="black" stroke="black" points="2201.33,-77.2 2209.73,-83.65 2207.18,-73.37 2201.33,-77.2"/>
<text text-anchor="middle" x="2256.67" y="-54.33" font-family="Times New Roman,serif" font-size="14.00">ns3:performance_film</text>
</g>
<!-- file:///C:/Users/Danylo/Desktop/Universit%C3%A4t/5%20Semester/Praktikum/Python/Batman Begins&#45;&gt;http://data.linkedmdb.org/resource/performance/108258 -->
<g id="edge10" class="edge">
<title>file:///C:/Users/Danylo/Desktop/Universit%C3%A4t/5%20Semester/Praktikum/Python/Batman Begins&#45;&gt;http://data.linkedmdb.org/resource/performance/108258</title>
<path fill="none" stroke="black" d="M1897.76,-19.13C2087.94,-22.65 2281.75,-31.08 2321.67,-50.53 2332.72,-55.91 2341.93,-65.79 2348.81,-75.22"/>
<polygon fill="black" stroke="black" points="2345.97,-77.27 2354.46,-83.61 2351.78,-73.36 2345.97,-77.27"/>
<text text-anchor="middle" x="2400.67" y="-54.33" font-family="Times New Roman,serif" font-size="14.00">ns3:performance_film</text>
</g>
<!-- file:///C:/Users/Danylo/Desktop/Universit%C3%A4t/5%20Semester/Praktikum/Python/Batman Begins&#45;&gt;http://data.linkedmdb.org/resource/performance/3700 -->
<g id="edge11" class="edge">
<title>file:///C:/Users/Danylo/Desktop/Universit%C3%A4t/5%20Semester/Praktikum/Python/Batman Begins&#45;&gt;http://data.linkedmdb.org/resource/performance/3700</title>
<path fill="none" stroke="black" d="M1865.86,-23.15C2128.46,-28.4 2437.96,-37.33 2465.67,-50.53 2476.88,-55.87 2486.31,-65.74 2493.37,-75.18"/>
<polygon fill="black" stroke="black" points="2490.61,-77.34 2499.18,-83.58 2496.37,-73.36 2490.61,-77.34"/>
<text text-anchor="middle" x="2545.67" y="-54.33" font-family="Times New Roman,serif" font-size="14.00">ns3:performance_film</text>
</g>
<!-- file:///C:/Users/Danylo/Desktop/Universit%C3%A4t/5%20Semester/Praktikum/Python/Batman Begins&#45;&gt;http://data.linkedmdb.org/resource/performance/3699 -->
<g id="edge12" class="edge">
<title>file:///C:/Users/Danylo/Desktop/Universit%C3%A4t/5%20Semester/Praktikum/Python/Batman Begins&#45;&gt;http://data.linkedmdb.org/resource/performance/3699</title>
<path fill="none" stroke="black" d="M1882.46,-21.49C2191.67,-26.02 2577.42,-34.78 2610.67,-50.53 2621.89,-55.84 2631.32,-65.72 2638.38,-75.16"/>
<polygon fill="black" stroke="black" points="2635.62,-77.32 2644.19,-83.56 2641.38,-73.34 2635.62,-77.32"/>
<text text-anchor="middle" x="2690.67" y="-54.33" font-family="Times New Roman,serif" font-size="14.00">ns3:performance_film</text>
</g>
<!-- file:///C:/Users/Danylo/Desktop/Universit%C3%A4t/5%20Semester/Praktikum/Python/Batman Begins&#45;&gt;http://data.linkedmdb.org/resource/performance/108561 -->
<g id="edge21" class="edge">
<title>file:///C:/Users/Danylo/Desktop/Universit%C3%A4t/5%20Semester/Praktikum/Python/Batman Begins&#45;&gt;http://data.linkedmdb.org/resource/performance/108561</title>
<path fill="none" stroke="black" d="M1892.8,-20.07C2247.92,-23.77 2716.62,-32.12 2755.67,-50.53 2766.9,-55.82 2776.33,-65.69 2783.39,-75.14"/>
<polygon fill="black" stroke="black" points="2780.63,-77.3 2789.19,-83.55 2786.4,-73.33 2780.63,-77.3"/>
<text text-anchor="middle" x="2835.67" y="-54.33" font-family="Times New Roman,serif" font-size="14.00">ns3:performance_film</text>
</g>
<!-- file:///C:/Users/Danylo/Desktop/Universit%C3%A4t/5%20Semester/Praktikum/Python/Batman Begins&#45;&gt;http://data.linkedmdb.org/resource/performance/108254 -->
<g id="edge22" class="edge">
<title>file:///C:/Users/Danylo/Desktop/Universit%C3%A4t/5%20Semester/Praktikum/Python/Batman Begins&#45;&gt;http://data.linkedmdb.org/resource/performance/108254</title>
<path fill="none" stroke="black" d="M1899.1,-18.87C2298.8,-21.68 2855.65,-29.38 2900.67,-50.53 2911.91,-55.81 2921.34,-65.68 2928.4,-75.12"/>
<polygon fill="black" stroke="black" points="2925.64,-77.29 2934.2,-83.53 2931.4,-73.32 2925.64,-77.29"/>
<text text-anchor="middle" x="2980.67" y="-54.33" font-family="Times New Roman,serif" font-size="14.00">ns3:performance_film</text>
</g>
<!-- file:///C:/Users/Danylo/Desktop/Universit%C3%A4t/5%20Semester/Praktikum/Python/Batman Begins&#45;&gt;http://data.linkedmdb.org/resource/performance/108255 -->
<g id="edge23" class="edge">
<title>file:///C:/Users/Danylo/Desktop/Universit%C3%A4t/5%20Semester/Praktikum/Python/Batman Begins&#45;&gt;http://data.linkedmdb.org/resource/performance/108255</title>
<path fill="none" stroke="black" d="M1902.32,-17.85C2344.98,-19.72 2994.52,-26.57 3045.67,-50.53 3056.91,-55.79 3066.35,-65.66 3073.4,-75.11"/>
<polygon fill="black" stroke="black" points="3070.65,-77.28 3079.2,-83.53 3076.41,-73.31 3070.65,-77.28"/>
<text text-anchor="middle" x="3125.67" y="-54.33" font-family="Times New Roman,serif" font-size="14.00">ns3:performance_film</text>
</g>
</g>
</svg>
